<?xml version="1.0" encoding="UTF-8" standalone="no"?>
<!DOCTYPE svg PUBLIC "-//W3C//DTD SVG 1.1//EN" "http://www.w3.org/Graphics/SVG/1.1/DTD/svg11.dtd">
<svg width="100%" height="100%" viewBox="0 0 852 228" version="1.1" xmlns="http://www.w3.org/2000/svg" xmlns:xlink="http://www.w3.org/1999/xlink" xml:space="preserve" xmlns:serif="http://www.serif.com/" style="fill-rule:evenodd;clip-rule:evenodd;stroke-linejoin:round;stroke-miterlimit:2;">
    <g transform="matrix(1,0,0,1,-2286.21,-2894.9)">
        <g id="Start" transform="matrix(0.926155,0,0,0.926155,115.491,7.957)">
            <path d="M3263.2,3178.53C3263.2,3144.64 3235.68,3117.13 3201.79,3117.13L2405.19,3117.13C2371.3,3117.13 2343.79,3144.64 2343.79,3178.53L2343.79,3301.34C2343.79,3335.22 2371.3,3362.74 2405.19,3362.74L3201.79,3362.74C3235.68,3362.74 3263.2,3335.22 3263.2,3301.34L3263.2,3178.53Z" style="fill:rgb(255,193,139);"/>
            <clipPath id="_clip1">
                <path d="M3263.2,3178.53C3263.2,3144.64 3235.68,3117.13 3201.79,3117.13L2405.19,3117.13C2371.3,3117.13 2343.79,3144.64 2343.79,3178.53L2343.79,3301.34C2343.79,3335.22 2371.3,3362.74 2405.19,3362.74L3201.79,3362.74C3235.68,3362.74 3263.2,3335.22 3263.2,3301.34L3263.2,3178.53Z"/>
            </clipPath>
            <g clip-path="url(#_clip1)">
                <g transform="matrix(1.07973,0,0,1.07973,-186.878,-248.539)">
                    <text x="2470.86px" y="3265.3px" style="font-family:'LEMONMILK-Regular', 'LEMON MILK';font-size:87.5px;fill:white;">C<tspan x="2532.68px " y="3265.3px ">o</tspan>mmencer</text>
                </g>
            </g>
        </g>
    </g>
</svg>
