<?xml version="1.0" encoding="UTF-8" standalone="no"?>
<!DOCTYPE svg PUBLIC "-//W3C//DTD SVG 1.1//EN" "http://www.w3.org/Graphics/SVG/1.1/DTD/svg11.dtd">
<svg width="100%" height="100%" viewBox="0 0 852 228" version="1.1" xmlns="http://www.w3.org/2000/svg" xmlns:xlink="http://www.w3.org/1999/xlink" xml:space="preserve" xmlns:serif="http://www.serif.com/" style="fill-rule:evenodd;clip-rule:evenodd;stroke-linejoin:round;stroke-miterlimit:2;">
    <g transform="matrix(1,0,0,1,-2401.4,-3105.73)">
        <g transform="matrix(1,0,0,1.86853,115.197,-366.987)">
            <g id="Start" transform="matrix(0.926155,0,0,0.49566,115.491,313.496)">
                <path d="M3263.2,3178.53C3263.2,3144.64 3235.68,3117.13 3201.79,3117.13L2405.19,3117.13C2371.3,3117.13 2343.79,3144.64 2343.79,3178.53L2343.79,3301.34C2343.79,3335.22 2371.3,3362.74 2405.19,3362.74L3201.79,3362.74C3235.68,3362.74 3263.2,3335.22 3263.2,3301.34L3263.2,3178.53Z" style="fill:rgb(255,193,139);"/>
                <clipPath id="_clip1">
                    <path d="M3263.2,3178.53C3263.2,3144.64 3235.68,3117.13 3201.79,3117.13L2405.19,3117.13C2371.3,3117.13 2343.79,3144.64 2343.79,3178.53L2343.79,3301.34C2343.79,3335.22 2371.3,3362.74 2405.19,3362.74L3201.79,3362.74C3235.68,3362.74 3263.2,3335.22 3263.2,3301.34L3263.2,3178.53Z"/>
                </clipPath>
                <g clip-path="url(#_clip1)">
                    <g>
                        <path d="M2523.15,3278.31C2534.22,3278.31 2542.39,3273.47 2548.8,3267.15L2542.07,3257.74C2536.95,3262.82 2530.39,3266.6 2522.78,3266.6C2509.45,3266.6 2496.4,3255.02 2496.4,3240.03C2496.4,3225.12 2509.27,3213.31 2522.74,3213.31C2530.03,3213.31 2536.81,3216.77 2542.02,3221.99L2548.8,3212.81C2541.51,3205.7 2532.61,3201.6 2522.97,3201.46C2502.07,3201.46 2484.59,3219.03 2484.59,3239.98C2484.59,3260.97 2502.07,3278.31 2523.15,3278.31Z" style="fill:white;fill-rule:nonzero;"/>
                        <path d="M2589.72,3278.31C2610.9,3278.31 2628.24,3261.06 2628.24,3240.03C2628.24,3218.8 2610.9,3201.46 2589.77,3201.46C2568.59,3201.46 2551.34,3218.8 2551.34,3240.03C2551.34,3261.06 2568.59,3278.31 2589.72,3278.31ZM2589.72,3266.51C2575.05,3266.51 2563.1,3254.56 2563.1,3239.93C2563.1,3225.22 2575.05,3213.22 2589.72,3213.22C2604.39,3213.22 2616.43,3225.22 2616.43,3239.93C2616.43,3254.56 2604.39,3266.51 2589.72,3266.51Z" style="fill:white;fill-rule:nonzero;"/>
                        <path d="M2710.91,3201.13L2675.39,3255.2L2639.82,3201.13L2638.95,3201.13L2638.95,3277.11L2650.61,3277.11L2650.61,3235.82L2675.34,3275.87L2675.43,3275.87L2700.12,3235.87L2700.12,3277.11L2711.78,3277.11L2711.78,3201.13L2710.91,3201.13Z" style="fill:white;fill-rule:nonzero;"/>
                        <path d="M2798.05,3201.13L2762.53,3255.2L2726.97,3201.13L2726.09,3201.13L2726.09,3277.11L2737.75,3277.11L2737.75,3235.82L2762.48,3275.87L2762.58,3275.87L2787.26,3235.87L2787.26,3277.11L2798.92,3277.11L2798.92,3201.13L2798.05,3201.13Z" style="fill:white;fill-rule:nonzero;"/>
                        <path d="M2857.51,3214.24L2857.51,3202.75L2813.23,3202.75L2813.23,3277.11L2857.51,3277.11L2857.51,3265.49L2824.9,3265.49L2824.9,3244.91L2853.04,3244.91L2853.04,3233.29L2824.9,3233.29L2824.9,3214.24L2857.51,3214.24Z" style="fill:white;fill-rule:nonzero;"/>
                        <path d="M2917.72,3202.57L2917.72,3251.05L2870.24,3201.46L2869.65,3201.46L2869.65,3277.2L2881.31,3277.2L2881.31,3228.72L2928.88,3278.4L2929.43,3278.4L2929.43,3202.57L2917.72,3202.57Z" style="fill:white;fill-rule:nonzero;"/>
                        <path d="M2978.74,3278.31C2989.82,3278.31 2997.98,3273.47 3004.39,3267.15L2997.66,3257.74C2992.54,3262.82 2985.99,3266.6 2978.37,3266.6C2965.04,3266.6 2951.99,3255.02 2951.99,3240.03C2951.99,3225.12 2964.86,3213.31 2978.33,3213.31C2985.62,3213.31 2992.4,3216.77 2997.61,3221.99L3004.39,3212.81C2997.1,3205.7 2988.2,3201.6 2978.56,3201.46C2957.66,3201.46 2940.18,3219.03 2940.18,3239.98C2940.18,3260.97 2957.66,3278.31 2978.74,3278.31Z" style="fill:white;fill-rule:nonzero;"/>
                        <path d="M3057.95,3214.24L3057.95,3202.75L3013.67,3202.75L3013.67,3277.11L3057.95,3277.11L3057.95,3265.49L3025.34,3265.49L3025.34,3244.91L3053.48,3244.91L3053.48,3233.29L3025.34,3233.29L3025.34,3214.24L3057.95,3214.24Z" style="fill:white;fill-rule:nonzero;"/>
                        <path d="M3125.3,3277.11L3103.67,3247.36C3112.2,3244.59 3118.38,3236.24 3118.38,3226.65C3118.38,3213.41 3107.04,3202.75 3093.2,3202.75L3070.07,3202.75L3070.12,3277.11L3081.8,3277.11L3081.8,3248.33L3090.93,3248.33L3110.96,3277.11L3125.3,3277.11ZM3081.75,3238.64L3081.75,3214.33L3093.47,3214.33C3100.39,3214.33 3106.35,3219.45 3106.35,3226.37C3106.35,3233.01 3100.49,3238.69 3093.47,3238.64L3081.75,3238.64Z" style="fill:white;fill-rule:nonzero;"/>
                    </g>
                </g>
            </g>
        </g>
    </g>
</svg>
