<?xml version="1.0" encoding="UTF-8" standalone="no"?>
<!DOCTYPE svg PUBLIC "-//W3C//DTD SVG 1.1//EN" "http://www.w3.org/Graphics/SVG/1.1/DTD/svg11.dtd">
<svg width="100%" height="100%" viewBox="0 0 161 161" version="1.1" xmlns="http://www.w3.org/2000/svg" xmlns:xlink="http://www.w3.org/1999/xlink" xml:space="preserve" xmlns:serif="http://www.serif.com/" style="fill-rule:evenodd;clip-rule:evenodd;stroke-linejoin:round;stroke-miterlimit:2;">
    <g transform="matrix(1,0,0,1,-3077.89,-1514.32)">
        <g transform="matrix(1,0,0,1,446.24,-224.776)">
            <g transform="matrix(0.186153,0,0,1,2332.17,8.86757e-12)">
                <path d="M2471.65,1779.26C2471.65,1757.09 2374.98,1739.1 2255.92,1739.1L1824.48,1739.1C1705.42,1739.1 1608.75,1757.09 1608.75,1779.26L1608.75,1859.78C1608.75,1881.95 1705.42,1899.94 1824.48,1899.94L2255.92,1899.94C2374.98,1899.94 2471.65,1881.95 2471.65,1859.78L2471.65,1779.26Z" style="fill:rgb(255,193,139);"/>
                <clipPath id="_clip1">
                    <path d="M2471.65,1779.26C2471.65,1757.09 2374.98,1739.1 2255.92,1739.1L1824.48,1739.1C1705.42,1739.1 1608.75,1757.09 1608.75,1779.26L1608.75,1859.78C1608.75,1881.95 1705.42,1899.94 1824.48,1899.94L2255.92,1899.94C2374.98,1899.94 2471.65,1881.95 2471.65,1859.78L2471.65,1779.26Z"/>
                </clipPath>
                <g clip-path="url(#_clip1)">
                    <g transform="matrix(1.15071,-0.214207,1.15071,0.214207,-4986.2,2130.99)">
                        <path d="M3861.18,2185L3921.16,2244.98L3840.08,2326.06L3921.16,2407.14L3861.18,2467.12L3780.1,2386.04L3699.02,2467.12L3639.05,2407.14L3720.13,2326.06L3639.05,2244.98L3699.02,2185L3780.1,2266.08L3861.18,2185Z" style="fill:white;"/>
                    </g>
                </g>
            </g>
        </g>
    </g>
</svg>
