<?xml version="1.0" encoding="UTF-8" standalone="no"?>
<!DOCTYPE svg PUBLIC "-//W3C//DTD SVG 1.1//EN" "http://www.w3.org/Graphics/SVG/1.1/DTD/svg11.dtd">
<svg width="100%" height="100%" viewBox="0 0 852 228" version="1.1" xmlns="http://www.w3.org/2000/svg" xmlns:xlink="http://www.w3.org/1999/xlink" xml:space="preserve" xmlns:serif="http://www.serif.com/" style="fill-rule:evenodd;clip-rule:evenodd;stroke-linejoin:round;stroke-miterlimit:2;">
    <g transform="matrix(1,0,0,1,-2401.4,-6807.64)">
        <g transform="matrix(1,0,0,1.86853,115.197,-366.987)">
            <g id="Start" transform="matrix(0.926155,0,0,0.49566,115.491,2294.69)">
                <path d="M3263.2,3178.53C3263.2,3144.64 3235.68,3117.13 3201.79,3117.13L2405.19,3117.13C2371.3,3117.13 2343.79,3144.64 2343.79,3178.53L2343.79,3301.34C2343.79,3335.22 2371.3,3362.74 2405.19,3362.74L3201.79,3362.74C3235.68,3362.74 3263.2,3335.22 3263.2,3301.34L3263.2,3178.53Z" style="fill:rgb(255,139,139);"/>
                <clipPath id="_clip1">
                    <path d="M3263.2,3178.53C3263.2,3144.64 3235.68,3117.13 3201.79,3117.13L2405.19,3117.13C2371.3,3117.13 2343.79,3144.64 2343.79,3178.53L2343.79,3301.34C2343.79,3335.22 2371.3,3362.74 2405.19,3362.74L3201.79,3362.74C3235.68,3362.74 3263.2,3335.22 3263.2,3301.34L3263.2,3178.53Z"/>
                </clipPath>
                <g clip-path="url(#_clip1)">
                    <g>
                        <path d="M2592.44,3278.31C2603.51,3278.31 2611.68,3273.47 2618.09,3267.15L2611.35,3257.74C2606.23,3262.82 2599.68,3266.6 2592.07,3266.6C2578.74,3266.6 2565.68,3255.02 2565.68,3240.03C2565.68,3225.12 2578.55,3213.31 2592.03,3213.31C2599.31,3213.31 2606.1,3216.77 2611.31,3221.99L2618.09,3212.81C2610.8,3205.7 2601.9,3201.6 2592.26,3201.46C2571.36,3201.46 2553.88,3219.03 2553.88,3239.98C2553.88,3260.97 2571.36,3278.31 2592.44,3278.31Z" style="fill:white;fill-rule:nonzero;"/>
                        <path d="M2679.26,3277.11L2691.9,3277.11L2656.93,3201.23L2656.24,3201.23L2621.28,3277.11L2633.92,3277.11L2638.99,3265.81L2674.19,3265.81L2679.26,3277.11ZM2643.51,3255.81L2656.61,3226.74L2669.67,3255.81L2643.51,3255.81Z" style="fill:white;fill-rule:nonzero;"/>
                        <path d="M2711.83,3265.49L2711.83,3202.75L2700.16,3202.75L2700.16,3277.11L2745,3277.11L2745,3265.49L2711.83,3265.49Z" style="fill:white;fill-rule:nonzero;"/>
                        <path d="M2786.19,3278.31C2797.26,3278.31 2805.43,3273.47 2811.84,3267.15L2805.11,3257.74C2799.99,3262.82 2793.43,3266.6 2785.82,3266.6C2772.49,3266.6 2759.44,3255.02 2759.44,3240.03C2759.44,3225.12 2772.31,3213.31 2785.78,3213.31C2793.07,3213.31 2799.85,3216.77 2805.06,3221.99L2811.84,3212.81C2804.55,3205.7 2795.65,3201.6 2786.01,3201.46C2765.11,3201.46 2747.63,3219.03 2747.63,3239.98C2747.63,3260.97 2765.11,3278.31 2786.19,3278.31Z" style="fill:white;fill-rule:nonzero;"/>
                        <path d="M2848.52,3278.5C2864.34,3278.5 2876.66,3266 2876.66,3248.93L2876.66,3202.75L2864.9,3202.75L2864.9,3248.89C2864.9,3259.17 2857.56,3266.69 2848.47,3266.69C2839.38,3266.69 2832.14,3259.17 2832.14,3248.89L2832.14,3202.75L2820.43,3202.75L2820.43,3248.93C2820.43,3266 2832.69,3278.5 2848.52,3278.5Z" style="fill:white;fill-rule:nonzero;"/>
                        <path d="M2901.89,3265.49L2901.89,3202.75L2890.22,3202.75L2890.22,3277.11L2935.06,3277.11L2935.06,3265.49L2901.89,3265.49Z" style="fill:white;fill-rule:nonzero;"/>
                        <path d="M2988.66,3214.24L2988.66,3202.75L2944.38,3202.75L2944.38,3277.11L2988.66,3277.11L2988.66,3265.49L2956.05,3265.49L2956.05,3244.91L2984.19,3244.91L2984.19,3233.29L2956.05,3233.29L2956.05,3214.24L2988.66,3214.24Z" style="fill:white;fill-rule:nonzero;"/>
                        <path d="M3056.01,3277.11L3034.38,3247.36C3042.91,3244.59 3049.09,3236.24 3049.09,3226.65C3049.09,3213.41 3037.75,3202.75 3023.91,3202.75L3000.78,3202.75L3000.83,3277.11L3012.51,3277.11L3012.51,3248.33L3021.64,3248.33L3041.67,3277.11L3056.01,3277.11ZM3012.46,3238.64L3012.46,3214.33L3024.18,3214.33C3031.11,3214.33 3037.06,3219.45 3037.06,3226.37C3037.06,3233.01 3031.2,3238.69 3024.18,3238.64L3012.46,3238.64Z" style="fill:white;fill-rule:nonzero;"/>
                    </g>
                </g>
            </g>
        </g>
    </g>
</svg>
