<?xml version="1.0" encoding="UTF-8" standalone="no"?>
<!DOCTYPE svg PUBLIC "-//W3C//DTD SVG 1.1//EN" "http://www.w3.org/Graphics/SVG/1.1/DTD/svg11.dtd">
<svg width="100%" height="100%" viewBox="0 0 650 237" version="1.1" xmlns="http://www.w3.org/2000/svg" xmlns:xlink="http://www.w3.org/1999/xlink" xml:space="preserve" xmlns:serif="http://www.serif.com/" style="fill-rule:evenodd;clip-rule:evenodd;stroke-linejoin:round;stroke-miterlimit:2;">
    <g transform="matrix(1,0,0,1,-2827.16,-3759.49)">
        <g transform="matrix(1,0,0,1.65026,3896.57,-1293.81)">
            <g transform="matrix(-0.732933,0,0,0.605963,1161.44,912.052)">
                <path d="M3043.73,3548.17L2216.65,3548.17C2183.96,3548.17 2157.42,3574.71 2157.42,3607.4L2157.42,3725.85C2157.42,3758.54 2183.96,3785.08 2216.65,3785.08L3043.73,3785.08L3043.73,3548.17Z" style="fill:rgb(255,139,139);"/>
                <clipPath id="_clip1">
                    <path d="M3043.73,3548.17L2216.65,3548.17C2183.96,3548.17 2157.42,3574.71 2157.42,3607.4L2157.42,3725.85C2157.42,3758.54 2183.96,3785.08 2216.65,3785.08L3043.73,3785.08L3043.73,3548.17Z"/>
                </clipPath>
                <g clip-path="url(#_clip1)">
                    <g transform="matrix(-1,0,0,0.661672,4687.85,1280.6)">
                        <path d="M1867.47,3665.53L1884.32,3665.53L1884.32,3624.27L1903.37,3624.27C1924.16,3624.27 1941.14,3606.99 1941.14,3585.82C1941.14,3564.21 1924.16,3546.58 1903.37,3546.58L1867.47,3546.58L1867.47,3665.53ZM1903.37,3605.81L1884.32,3605.73L1884.32,3565.09L1903.37,3565.09C1914.9,3565.09 1924.3,3574.31 1924.3,3585.67C1924.3,3596.81 1914.9,3605.88 1903.37,3605.81Z" style="fill:white;fill-rule:nonzero;"/>
                        <path d="M2009.5,3665.53L2027.75,3665.53L1977.25,3544.14L1976.26,3544.14L1925.76,3665.53L1944.01,3665.53L1951.34,3647.45L2002.17,3647.45L2009.5,3665.53ZM1957.87,3631.45L1976.79,3584.95L1995.64,3631.45L1957.87,3631.45Z" style="fill:white;fill-rule:nonzero;"/>
                        <path d="M2119.42,3665.53L2088.18,3617.93C2100.5,3613.51 2109.42,3600.16 2109.42,3584.8C2109.42,3563.62 2093.04,3546.58 2073.05,3546.58L2039.65,3546.58L2039.72,3665.53L2056.59,3665.53L2056.59,3619.48L2069.78,3619.48L2098.7,3665.53L2119.42,3665.53ZM2056.52,3603.99L2056.52,3565.09L2073.45,3565.09C2083.45,3565.09 2092.05,3573.29 2092.05,3584.36C2092.05,3594.99 2083.58,3604.07 2073.45,3603.99L2056.52,3603.99Z" style="fill:white;fill-rule:nonzero;"/>
                        <path d="M2195.36,3546.58L2120.89,3546.58L2120.89,3565.09L2149.67,3565.09L2149.67,3665.53L2166.58,3665.53L2166.58,3565.09L2195.36,3565.09L2195.36,3546.58Z" style="fill:white;fill-rule:nonzero;"/>
                        <rect x="2208.76" y="3546.58" width="16.847" height="118.948" style="fill:white;fill-rule:nonzero;"/>
                        <path d="M2310.22,3564.95L2310.22,3546.58L2246.27,3546.58L2246.27,3665.53L2310.22,3665.53L2310.22,3646.94L2263.12,3646.94L2263.12,3614.02L2303.76,3614.02L2303.76,3595.43L2263.12,3595.43L2263.12,3564.95L2310.22,3564.95Z" style="fill:white;fill-rule:nonzero;"/>
                    </g>
                </g>
            </g>
        </g>
    </g>
</svg>
