<?xml version="1.0" encoding="UTF-8" standalone="no"?>
<!DOCTYPE svg PUBLIC "-//W3C//DTD SVG 1.1//EN" "http://www.w3.org/Graphics/SVG/1.1/DTD/svg11.dtd">
<svg width="100%" height="100%" viewBox="0 0 650 237" version="1.1" xmlns="http://www.w3.org/2000/svg" xmlns:xlink="http://www.w3.org/1999/xlink" xml:space="preserve" xmlns:serif="http://www.serif.com/" style="fill-rule:evenodd;clip-rule:evenodd;stroke-linejoin:round;stroke-miterlimit:2;">
    <g transform="matrix(1,0,0,1,-2177.55,-4093.34)">
        <g transform="matrix(1,0,0,1.65026,3896.57,-959.955)">
            <g transform="matrix(0.732933,0,0,0.605963,-3300.26,912.052)">
                <path d="M3043.73,3548.17L2216.65,3548.17C2183.96,3548.17 2157.42,3574.71 2157.42,3607.4L2157.42,3725.85C2157.42,3758.54 2183.96,3785.08 2216.65,3785.08L3043.73,3785.08L3043.73,3548.17Z" style="fill:rgb(255,193,139);"/>
                <clipPath id="_clip1">
                    <path d="M3043.73,3548.17L2216.65,3548.17C2183.96,3548.17 2157.42,3574.71 2157.42,3607.4L2157.42,3725.85C2157.42,3758.54 2183.96,3785.08 2216.65,3785.08L3043.73,3785.08L3043.73,3548.17Z"/>
                </clipPath>
                <g clip-path="url(#_clip1)">
                    <g transform="matrix(1,0,0,0.661672,513.3,1280.6)">
                        <path d="M1849.68,3667.52C1871.47,3667.52 1887.98,3653.95 1887.98,3632.85C1887.98,3614.1 1874.79,3605.02 1857.81,3596.76C1844.75,3590.56 1834.82,3587.24 1834.82,3577.94C1834.82,3569.52 1842.68,3562.73 1852.54,3562.73C1860.34,3562.73 1867.73,3567.23 1871.07,3575.28L1883.58,3565.68C1879.19,3552.63 1867.73,3544.44 1852.41,3544.44C1833.09,3544.44 1817.84,3558.01 1817.84,3577.49C1817.84,3596.16 1831.82,3603.4 1844.41,3609.6C1856.94,3615.58 1871.07,3622.22 1871.07,3633.21C1871.07,3642.29 1861.94,3648.71 1849.88,3648.71C1839.55,3648.71 1830.62,3643.4 1825.83,3634.1L1812.51,3644.65C1818.63,3658.38 1832.02,3667.52 1849.68,3667.52Z" style="fill:white;fill-rule:nonzero;"/>
                        <path d="M1953,3667.45C1968.99,3667.45 1980.78,3659.7 1990.04,3649.6L1980.31,3634.54C1972.92,3642.66 1963.46,3648.71 1952.47,3648.71C1933.21,3648.71 1914.36,3630.19 1914.36,3606.21C1914.36,3582.36 1932.95,3563.47 1952.4,3563.47C1962.93,3563.47 1972.72,3569.01 1980.25,3577.35L1990.04,3562.67C1979.52,3551.3 1966.66,3544.74 1952.73,3544.51C1922.56,3544.51 1897.31,3572.62 1897.31,3606.13C1897.31,3639.71 1922.56,3667.45 1953,3667.45Z" style="fill:white;fill-rule:nonzero;"/>
                        <path d="M2049.14,3667.45C2079.72,3667.45 2104.76,3639.86 2104.76,3606.2C2104.76,3572.25 2079.72,3544.51 2049.2,3544.51C2018.62,3544.51 1993.71,3572.25 1993.71,3606.2C1993.71,3639.86 2018.62,3667.45 2049.14,3667.45ZM2049.14,3648.57C2027.95,3648.57 2010.69,3629.45 2010.69,3606.06C2010.69,3582.51 2027.95,3563.32 2049.14,3563.32C2070.32,3563.32 2087.71,3582.51 2087.71,3606.06C2087.71,3629.45 2070.32,3648.57 2049.14,3648.57Z" style="fill:white;fill-rule:nonzero;"/>
                        <path d="M2199.96,3665.53L2168.72,3617.93C2181.05,3613.51 2189.97,3600.16 2189.97,3584.8C2189.97,3563.62 2173.59,3546.58 2153.59,3546.58L2120.2,3546.58L2120.26,3665.53L2137.13,3665.53L2137.13,3619.48L2150.33,3619.48L2179.25,3665.53L2199.96,3665.53ZM2137.07,3603.99L2137.07,3565.09L2153.99,3565.09C2163.99,3565.09 2172.59,3573.29 2172.59,3584.36C2172.59,3594.99 2164.12,3604.07 2153.99,3603.99L2137.07,3603.99Z" style="fill:white;fill-rule:nonzero;"/>
                        <path d="M2275.24,3564.95L2275.24,3546.58L2211.3,3546.58L2211.3,3665.53L2275.24,3665.53L2275.24,3646.94L2228.14,3646.94L2228.14,3614.02L2268.78,3614.02L2268.78,3595.43L2228.14,3595.43L2228.14,3564.95L2275.24,3564.95Z" style="fill:white;fill-rule:nonzero;"/>
                        <path d="M2323.74,3667.52C2345.53,3667.52 2362.05,3653.95 2362.05,3632.85C2362.05,3614.1 2348.86,3605.02 2331.87,3596.76C2318.81,3590.56 2308.89,3587.24 2308.89,3577.94C2308.89,3569.52 2316.75,3562.73 2326.61,3562.73C2334.41,3562.73 2341.8,3567.23 2345.14,3575.28L2357.65,3565.68C2353.26,3552.63 2341.8,3544.44 2326.48,3544.44C2307.15,3544.44 2291.91,3558.01 2291.91,3577.49C2291.91,3596.16 2305.89,3603.4 2318.48,3609.6C2331.01,3615.58 2345.14,3622.22 2345.14,3633.21C2345.14,3642.29 2336.01,3648.71 2323.95,3648.71C2313.62,3648.71 2304.69,3643.4 2299.9,3634.1L2286.58,3644.65C2292.7,3658.38 2306.09,3667.52 2323.74,3667.52Z" style="fill:white;fill-rule:nonzero;"/>
                    </g>
                </g>
            </g>
        </g>
    </g>
</svg>
