<?xml version="1.0" encoding="UTF-8" standalone="no"?>
<!DOCTYPE svg PUBLIC "-//W3C//DTD SVG 1.1//EN" "http://www.w3.org/Graphics/SVG/1.1/DTD/svg11.dtd">
<svg width="100%" height="100%" viewBox="0 0 1929 150" version="1.1" xmlns="http://www.w3.org/2000/svg" xmlns:xlink="http://www.w3.org/1999/xlink" xml:space="preserve" xmlns:serif="http://www.serif.com/" style="fill-rule:evenodd;clip-rule:evenodd;stroke-linejoin:round;stroke-miterlimit:2;">
    <g transform="matrix(1,0,0,1,-1862.78,-1144.63)">
        <g transform="matrix(1,0,0,0.779655,0,193.048)">
            <g id="Title" transform="matrix(1.54131,0,0,1.28262,-1357.81,-452.376)">
                <path d="M2154.44,1307.23L2089.51,1307.23L2089.51,1329.69L2114.6,1329.69L2114.6,1451.53L2129.35,1451.53L2129.35,1329.69L2154.44,1329.69L2154.44,1307.23Z" style="fill:white;fill-rule:nonzero;"/>
                <path d="M2219.84,1451.53L2235.75,1451.53L2191.73,1304.28L2190.86,1304.28L2146.84,1451.53L2162.75,1451.53L2169.14,1429.59L2213.45,1429.59L2219.84,1451.53ZM2174.83,1410.18L2191.32,1353.78L2207.76,1410.18L2174.83,1410.18Z" style="fill:white;fill-rule:nonzero;"/>
                <path d="M2315.67,1451.53L2288.43,1393.79C2299.18,1388.42 2306.95,1372.22 2306.95,1353.6C2306.95,1327.9 2292.67,1307.23 2275.24,1307.23L2246.13,1307.23L2246.19,1451.53L2260.89,1451.53L2260.89,1395.66L2272.4,1395.66L2297.61,1451.53L2315.67,1451.53ZM2260.83,1376.88L2260.83,1329.69L2275.59,1329.69C2284.31,1329.69 2291.8,1339.63 2291.8,1353.06C2291.8,1365.95 2284.42,1376.97 2275.59,1376.88L2260.83,1376.88Z" style="fill:white;fill-rule:nonzero;"/>
                <path d="M2369.39,1453.85C2396.05,1453.85 2417.89,1420.38 2417.89,1379.56C2417.89,1338.38 2396.05,1304.73 2369.45,1304.73C2342.79,1304.73 2321.08,1338.38 2321.08,1379.56C2321.08,1420.38 2342.79,1453.85 2369.39,1453.85ZM2369.39,1430.95C2350.92,1430.95 2335.88,1407.76 2335.88,1379.38C2335.88,1350.82 2350.92,1327.54 2369.39,1327.54C2387.86,1327.54 2403.03,1350.82 2403.03,1379.38C2403.03,1407.76 2387.86,1430.95 2369.39,1430.95Z" style="fill:white;fill-rule:nonzero;"/>
                <path d="M2485.37,1307.23L2420.45,1307.23L2420.45,1329.69L2445.54,1329.69L2445.54,1451.53L2460.28,1451.53L2460.28,1329.69L2485.37,1329.69L2485.37,1307.23Z" style="fill:white;fill-rule:nonzero;"/>
                <path d="M2575.98,1453.85C2589.92,1453.85 2600.2,1444.46 2608.27,1432.2L2599.79,1413.94C2593.34,1423.79 2585.1,1431.13 2575.51,1431.13C2558.73,1431.13 2542.29,1408.66 2542.29,1379.56C2542.29,1350.64 2558.49,1327.72 2575.45,1327.72C2584.63,1327.72 2593.17,1334.44 2599.73,1344.55L2608.27,1326.75C2599.09,1312.96 2587.88,1305 2575.74,1304.73C2549.43,1304.73 2527.43,1338.82 2527.43,1379.47C2527.43,1420.2 2549.43,1453.85 2575.98,1453.85Z" style="fill:white;fill-rule:nonzero;"/>
                <path d="M2685.28,1451.53L2701.2,1451.53L2657.18,1304.28L2656.3,1304.28L2612.28,1451.53L2628.2,1451.53L2634.59,1429.59L2678.9,1429.59L2685.28,1451.53ZM2640.28,1410.18L2656.77,1353.78L2673.2,1410.18L2640.28,1410.18Z" style="fill:white;fill-rule:nonzero;"/>
                <path d="M2726.29,1428.98L2726.29,1307.23L2711.6,1307.23L2711.6,1451.53L2768.05,1451.53L2768.05,1428.98L2726.29,1428.98Z" style="fill:white;fill-rule:nonzero;"/>
                <path d="M2819.91,1453.85C2833.85,1453.85 2844.13,1444.46 2852.2,1432.2L2843.72,1413.94C2837.28,1423.79 2829.03,1431.13 2819.45,1431.13C2802.66,1431.13 2786.22,1408.66 2786.22,1379.56C2786.22,1350.64 2802.43,1327.72 2819.39,1327.72C2828.56,1327.72 2837.1,1334.44 2843.66,1344.55L2852.2,1326.75C2843.03,1312.96 2831.82,1305 2819.68,1304.73C2793.37,1304.73 2771.36,1338.82 2771.36,1379.47C2771.36,1420.2 2793.37,1453.85 2819.91,1453.85Z" style="fill:white;fill-rule:nonzero;"/>
                <path d="M2898.38,1454.21C2918.3,1454.21 2933.8,1429.96 2933.8,1396.84L2933.8,1307.23L2919,1307.23L2919,1396.75C2919,1416.71 2909.76,1431.31 2898.32,1431.31C2886.88,1431.31 2877.76,1416.71 2877.76,1396.75L2877.76,1307.23L2863.01,1307.23L2863.01,1396.84C2863.01,1429.96 2878.45,1454.21 2898.38,1454.21Z" style="fill:white;fill-rule:nonzero;"/>
                <path d="M2965.57,1428.98L2965.57,1307.23L2950.89,1307.23L2950.89,1451.53L3007.33,1451.53L3007.33,1428.98L2965.57,1428.98Z" style="fill:white;fill-rule:nonzero;"/>
                <path d="M3085.16,1451.53L3101.07,1451.53L3057.05,1304.28L3056.18,1304.28L3012.16,1451.53L3028.07,1451.53L3034.46,1429.59L3078.77,1429.59L3085.16,1451.53ZM3040.15,1410.18L3056.64,1353.78L3073.08,1410.18L3040.15,1410.18Z" style="fill:white;fill-rule:nonzero;"/>
                <path d="M3158.51,1307.23L3093.59,1307.23L3093.59,1329.69L3118.68,1329.69L3118.68,1451.53L3133.42,1451.53L3133.42,1329.69L3158.51,1329.69L3158.51,1307.23Z" style="fill:white;fill-rule:nonzero;"/>
                <path d="M3209.39,1453.85C3236.05,1453.85 3257.89,1420.38 3257.89,1379.56C3257.89,1338.38 3236.05,1304.73 3209.45,1304.73C3182.79,1304.73 3161.07,1338.38 3161.07,1379.56C3161.07,1420.38 3182.79,1453.85 3209.39,1453.85ZM3209.39,1430.95C3190.92,1430.95 3175.88,1407.76 3175.88,1379.38C3175.88,1350.82 3190.92,1327.54 3209.39,1327.54C3227.86,1327.54 3243.02,1350.82 3243.02,1379.38C3243.02,1407.76 3227.86,1430.95 3209.39,1430.95Z" style="fill:white;fill-rule:nonzero;"/>
                <path d="M3340.88,1451.53L3313.65,1393.79C3324.39,1388.42 3332.17,1372.22 3332.17,1353.6C3332.17,1327.9 3317.89,1307.23 3300.46,1307.23L3271.34,1307.23L3271.4,1451.53L3286.11,1451.53L3286.11,1395.66L3297.61,1395.66L3322.82,1451.53L3340.88,1451.53ZM3286.05,1376.88L3286.05,1329.69L3300.81,1329.69C3309.52,1329.69 3317.02,1339.63 3317.02,1353.06C3317.02,1365.95 3309.64,1376.97 3300.81,1376.88L3286.05,1376.88Z" style="fill:white;fill-rule:nonzero;"/>
            </g>
        </g>
    </g>
</svg>
